<svg xmlns="http://www.w3.org/2000/svg" viewBox="0 0 1024 1024">
  <path fill="#5470FF" d="M512 64C264.6 64 64 264.6 64 512s200.6 448 448 448 448-200.6 448-448S759.4 64 512 64zm0 820c-205.4 0-372-166.6-372-372s166.6-372 372-372 372 166.6 372 372-166.6 372-372 372z"/>
  <path fill="#5470FF" d="M512 140c-205.4 0-372 166.6-372 372s166.6 372 372 372 372-166.6 372-372-166.6-372-372-372zm193.5 225.7l-210.6 292a31.8 31.8 0 0 1-51.7 0L318.5 365.7c-3.8-5.3 0-12.7 6.5-12.7h73.9c6.5 0 12.3 3.4 15.6 8.9l126.4 174.3 126.4-174.3c3.3-5.5 9.1-8.9 15.6-8.9h73.9c6.5 0 10.3 7.4 6.5 12.7z"/>
  <ellipse cx="420" cy="480" rx="35" ry="45" fill="white"/>
  <ellipse cx="604" cy="480" rx="35" ry="45" fill="white"/>
  <circle cx="420" cy="480" r="18" fill="#1E40AF"/>
  <circle cx="604" cy="480" r="18" fill="#1E40AF"/>
  <path d="M380 590 Q512 640 644 590" stroke="white" stroke-width="25" fill="none" stroke-linecap="round"/>
</svg>

